<?xml version="1.0" standalone="no"?><svg xmlns="http://www.w3.org/2000/svg" viewBox="0 0 1440 320"><path fill="#64748B" fill-opacity="1" d="M0,32L17.1,37.3C34.3,43,69,53,103,80C137.1,107,171,149,206,165.3C240,181,274,171,309,154.7C342.9,139,377,117,411,122.7C445.7,128,480,160,514,160C548.6,160,583,128,617,106.7C651.4,85,686,75,720,69.3C754.3,64,789,64,823,90.7C857.1,117,891,171,926,208C960,245,994,267,1029,272C1062.9,277,1097,267,1131,234.7C1165.7,203,1200,149,1234,160C1268.6,171,1303,245,1337,256C1371.4,267,1406,213,1423,186.7L1440,160L1440,320L1422.9,320C1405.7,320,1371,320,1337,320C1302.9,320,1269,320,1234,320C1200,320,1166,320,1131,320C1097.1,320,1063,320,1029,320C994.3,320,960,320,926,320C891.4,320,857,320,823,320C788.6,320,754,320,720,320C685.7,320,651,320,617,320C582.9,320,549,320,514,320C480,320,446,320,411,320C377.1,320,343,320,309,320C274.3,320,240,320,206,320C171.4,320,137,320,103,320C68.6,320,34,320,17,320L0,320Z"></path></svg>